PathFileType	4	(X/Y/Z)	Patient4_TMGait_0pt4_01_left_35.trc.trc
DataRate	CameraRate	NumFrames	NumMarkers	Units	OrigDataRate	OrigDataStartFrame	OrigNumFrames
72.538860103627	72.538860103627	4	33	mm	72.538860103627	124	       141
Frame#	Time	Sacral			L.Shoulder			Chest			R.Shoulder			Neck			R.ASIS			L.ASIS			R.Thigh.Superior			R.Thigh.Lateral			R.Thigh.Inferior			R.Patella			L.Thigh.Superior			L.Thigh.Lateral			L.Thigh.Inferior			L.Patella			L.Shank.Superior			L.Shank.Lateral			L.Shank.Inferior			R.Shank.Superior			R.Shank.Lateral			R.Shank.Inferior			R.Heel			R.Midfoot.Superior			R.Midfoot.Lateral			R.Toe			L.Heel			L.Midfoot.Lateral			L.Midfoot.Superior			L.Toe			L.Elbow			L.Wrist			R.Elbow			R.Wrist			
		X1	Y1	Z1	X2	Y2	Z2	X3	Y3	Z3	X4	Y4	Z4	X5	Y5	Z5	X6	Y6	Z6	X7	Y7	Z7	X8	Y8	Z8	X9	Y9	Z9	X10	Y10	Z10	X11	Y11	Z11	X12	Y12	Z12	X13	Y13	Z13	X14	Y14	Z14	X15	Y15	Z15	X16	Y16	Z16	X17	Y17	Z17	X18	Y18	Z18	X19	Y19	Z19	X20	Y20	Z20	X21	Y21	Z21	X22	Y22	Z22	X23	Y23	Z23	X24	Y24	Z24	X25	Y25	Z25	X26	Y26	Z26	X27	Y27	Z27	X28	Y28	Z28	X29	Y29	Z29	X30	Y30	Z30	X31	Y31	Z31	X32	Y32	Z32	X33	Y33	Z33	

124	45.145642857143	813.592570980599	997.323376400620	532.610558926176	946.284331729119	1425.340559157079	326.995205132960	1077.253877251768	1363.750241173182	469.234069793451	1021.812731507861	1436.568406643287	653.810113792032	954.318127050903	1488.719758856871	483.281865839288	1056.398251625790	935.153642365581	618.266188815502	1006.489421082249	956.219015207635	347.144881318237	1052.762481322086	721.950272233077	589.373778620160	951.300061913574	626.033841157135	656.004817484168	1006.494677141133	561.872280012862	572.362477246780	986.072880425824	477.276570798068	576.890696629664	1084.365425433764	767.789722384816	368.417962301783	1022.660023504378	636.459701363469	302.604196213307	1131.348886343897	578.980851038819	353.685413646019	1153.282933538557	511.520540344553	352.422183359275	1133.449662661990	437.538525572928	345.830929015704	1054.963748853042	311.696618012172	303.602030633378	1138.276951780041	207.689008411202	354.394132597714	946.409785920755	393.544644259638	584.877521361409	863.791511535616	299.876007464417	649.743719519137	889.191039639392	201.392560768764	582.626309706960	737.330107066156	44.208525612631	552.616415892812	909.115505313690	95.750294215132	588.296818392464	820.318742490396	36.691932622933	627.474884172856	1028.689285676123	41.587167447865	616.397535924300	1043.830430090977	40.665069357979	402.860479956342	1110.814157638497	39.057467251220	316.916810202880	1191.362389168435	106.395357210384	333.329962373196	1318.714272543533	61.867397955742	295.950144667833	847.016754432739	1081.854440590415	236.336109213170	887.172696694991	823.316542961394	221.869246051778	1172.098791318177	1127.074369821996	766.038762756882	1409.129854171556	1153.766475932948	680.059226947447	
125	45.159428571429	815.058166751538	996.730881988088	530.012518545111	947.620203162183	1424.266463516274	324.075516868664	1078.272682395280	1363.259120181496	466.840885481333	1022.078981158557	1436.257725720717	651.214599963268	955.151621467475	1488.070127019956	480.324905411073	1057.793253296369	934.319259716037	616.544450363250	1008.450799383256	955.486130613570	345.488493063959	1053.658037722987	720.957189273768	587.787348121454	951.526946330168	625.517507557384	654.286430317051	1006.580433651878	560.868879630176	570.912725320485	985.428643134250	475.962329964716	575.354707354025	1085.878529648739	765.552780176277	367.606494658660	1022.698385793965	634.871257306779	302.714998071041	1130.562471654708	576.763969981814	354.882760535585	1151.052077727388	508.528086327511	354.254003692898	1130.640824333413	434.548006364262	347.284174390550	1050.989752616417	309.522135624170	305.075607864248	1132.348479831702	204.648011635601	356.776570684055	944.706294946801	392.693375734371	583.723596087091	861.054397019191	300.243367694494	649.042091653797	885.143312472365	201.227105679285	582.296706834556	731.885839276448	44.928309319117	552.913390181704	903.800604595870	95.712408842700	588.302925936213	814.921675630323	36.878292425129	627.642450849065	1023.273319319238	41.183565820585	616.519297899140	1034.964027364863	39.625605207490	405.048416098526	1101.995710263735	37.706555735917	319.051239391271	1183.897013318610	103.079431168994	336.394366120777	1310.685040220663	56.239169867447	298.521319677108	850.960769369626	1079.998888363083	232.844015365487	894.576728060284	821.972179610139	217.896463446121	1167.227388353342	1123.573499591214	763.989880827635	1406.080574235632	1141.013767568108	679.263307669774	
126	45.173214285714	816.460512294947	996.426961608497	527.331335261333	949.195705853635	1423.430357410961	321.064746552256	1079.502861442709	1362.888108564974	464.336520731400	1022.637823302181	1436.103453041682	648.517257935670	956.241880665476	1487.639149618912	477.281696259587	1059.095565487309	933.661997376899	614.586885195611	1010.245227005087	955.041249600940	343.630239047626	1054.521132984829	720.175408578982	586.032877373292	951.825486829802	625.189040034569	652.448485657603	1006.816284238964	560.059955347413	569.375749080509	985.002856968837	474.749692520382	573.810504716948	1087.312560749122	763.838009164671	366.826609054562	1023.172799547313	633.905656952000	302.395326478130	1130.057201145003	575.161952680454	355.912737572124	1149.183107185463	506.183327319848	355.739543678209	1128.278410320722	432.197745848765	348.310307709599	1047.747548575144	307.933096520379	305.822587801553	1127.066373783058	202.250394993489	358.547989987948	943.145829784912	391.999558590552	582.577700025074	858.379678274154	300.843747501722	648.321617610196	881.183000411643	201.259863809993	582.033306373687	726.485874673636	45.962861103075	553.279059755291	898.581338339919	95.705051116528	588.331102266227	809.576904175787	37.181752170709	627.847163421879	1017.906855737207	40.731752346667	616.647182623509	1026.874271242898	38.909350963167	406.469982329957	1094.046374429151	36.810865528749	320.500684765544	1177.054513566411	100.544259113624	338.757662163403	1303.428618018401	51.732223722166	300.564719666567	855.376151556180	1078.359797692588	229.145380565303	902.286659699468	820.863726240208	213.686537479506	1161.895860799201	1120.049496893351	762.043607747588	1402.293475820834	1126.773595777825	678.587540309904	
127	45.187000000000	817.777105305968	996.456957076011	524.579423719162	950.978621514292	1422.904574683898	318.009828807553	1080.930975091470	1362.671040867862	461.737097623831	1023.520248055211	1436.135092390460	645.741739017184	957.585371274482	1487.469814081433	474.199166459726	1060.263251931685	933.240534797960	612.371038963878	1011.828871075167	954.915469125762	341.525639353899	1055.295639504404	719.661706248818	584.114984091744	952.173546427449	625.092306270538	650.515648861856	1007.200496981766	559.493148734928	567.778806501217	984.836459351940	473.670374573611	572.328538264018	1088.633535199915	762.745770019359	365.977459887781	1023.989603697015	633.555475131769	301.633784813847	1129.782947195993	574.159800023481	356.574723651514	1147.630917061174	504.501334315849	356.738003366492	1126.328516204023	430.499021863131	348.856939883122	1045.186912104404	306.926355445852	305.855896051437	1122.431521615537	200.519568957550	359.702129446960	941.756494383034	391.500598785909	581.482530617357	855.776149247227	301.719067484074	647.599475096405	877.340536268612	201.530994587302	581.857333577256	721.146001047857	47.376105820371	553.711234095741	893.479605873885	95.737278291156	588.382129917807	804.289759342838	37.637779131241	628.084655031107	1012.588177362167	40.246636613081	616.776834865403	1019.657663377149	38.496301493104	407.218246307828	1087.015435640963	36.317836198374	321.328626567525	1170.860745320315	98.794714408456	340.388517521863	1296.958767677023	48.394300969012	302.016385908375	860.222973635704	1077.028624225291	225.268641435825	910.286139298813	820.086438940546	209.259325258188	1156.191849933002	1116.606198440095	760.174656562947	1397.657671657930	1111.070000843200	678.066847406813	
